<?xml version="1.0" encoding="utf-8"?>
<!-- Generator: Adobe Illustrator 27.5.0, SVG Export Plug-In . SVG Version: 6.00 Build 0)  -->
<svg version="1.1" id="Layer_1" xmlns="http://www.w3.org/2000/svg" xmlns:xlink="http://www.w3.org/1999/xlink" x="0px" y="0px"
	 viewBox="0 0 24 24" style="enable-background:new 0 0 24 24;" xml:space="preserve">
<style type="text/css">
	.st0{fill-rule:evenodd;clip-rule:evenodd;fill:#F2B705;}
	.st1{fill:#F2B705;}
</style>
<path class="st0" d="M12,1.2C9.4,1.2,7.2,3.4,7.2,6s2.1,4.8,4.8,4.8c2.6,0,4.8-2.1,4.8-4.8S14.6,1.2,12,1.2z M8.8,6
	c0-1.8,1.5-3.2,3.2-3.2s3.2,1.5,3.2,3.2S13.8,9.2,12,9.2S8.8,7.8,8.8,6z"/>
<path class="st1" d="M18,3.2c-0.4,0-0.8,0.3-0.8,0.8s0.3,0.8,0.8,0.8c1.4,0,2.2,0.9,2.2,1.8S19.4,8.2,18,8.2c-0.4,0-0.8,0.3-0.8,0.8
	s0.3,0.8,0.8,0.8c1.9,0,3.8-1.3,3.8-3.2S19.9,3.2,18,3.2z"/>
<path class="st1" d="M6.8,4c0-0.4-0.3-0.8-0.8-0.8c-1.9,0-3.8,1.3-3.8,3.2S4.1,9.8,6,9.8c0.4,0,0.8-0.3,0.8-0.8S6.4,8.2,6,8.2
	c-1.4,0-2.2-0.9-2.2-1.8S4.6,4.8,6,4.8C6.4,4.8,6.8,4.4,6.8,4z"/>
<path class="st0" d="M12,12.2c-1.8,0-3.4,0.5-4.7,1.3c-1.2,0.8-2.1,2-2.1,3.5s0.9,2.6,2.1,3.5c1.2,0.8,2.9,1.3,4.7,1.3
	s3.4-0.5,4.7-1.3c1.2-0.8,2.1-2,2.1-3.5s-0.9-2.6-2.1-3.5C15.4,12.7,13.8,12.2,12,12.2z M6.8,17c0-0.8,0.5-1.6,1.4-2.2
	c0.9-0.6,2.3-1,3.8-1s2.9,0.4,3.8,1c1,0.6,1.4,1.4,1.4,2.2s-0.5,1.6-1.4,2.2s-2.3,1-3.8,1s-2.9-0.4-3.8-1C7.2,18.6,6.8,17.8,6.8,17z
	"/>
<path class="st1" d="M19.3,13.8c0.1-0.4,0.5-0.7,0.9-0.6c1,0.2,1.8,0.6,2.5,1.1c0.6,0.5,1.1,1.2,1.1,2.1s-0.5,1.6-1.1,2.1
	s-1.5,0.9-2.5,1.1c-0.4,0.1-0.8-0.2-0.9-0.6s0.2-0.8,0.6-0.9c0.8-0.2,1.4-0.5,1.8-0.8s0.6-0.7,0.6-1s-0.1-0.6-0.6-1
	c-0.4-0.3-1.1-0.6-1.8-0.8C19.4,14.6,19.2,14.2,19.3,13.8z"/>
<path class="st1" d="M3.8,13.3c0.4-0.1,0.8,0.2,0.9,0.6c0.1,0.4-0.2,0.8-0.6,0.9c-0.8,0.2-1.4,0.5-1.8,0.8s-0.6,0.7-0.6,1
	s0.1,0.6,0.6,1c0.4,0.3,1.1,0.6,1.8,0.8c0.4,0.1,0.7,0.5,0.6,0.9S4.2,20,3.8,19.9c-1-0.2-1.8-0.6-2.5-1.1c-0.6-0.5-1.1-1.2-1.1-2.1
	s0.5-1.6,1.1-2.1C2,13.9,2.9,13.5,3.8,13.3z"/>
</svg>
