<?xml version="1.0" encoding="utf-8"?>
<!-- Generator: Adobe Illustrator 27.5.0, SVG Export Plug-In . SVG Version: 6.00 Build 0)  -->
<svg version="1.1" id="Layer_1" xmlns="http://www.w3.org/2000/svg" xmlns:xlink="http://www.w3.org/1999/xlink" x="0px" y="0px"
	 viewBox="0 0 24 24" style="enable-background:new 0 0 24 24;" xml:space="preserve">
<style type="text/css">
	.st0{fill-rule:evenodd;clip-rule:evenodd;fill:#F2B705;}
</style>
<path class="st0" d="M18.5,1.2c0.4,0,0.8,0.3,0.8,0.8v2.8H22c0.4,0,0.8,0.3,0.8,0.8S22.4,6.2,22,6.2h-2.8V9c0,0.4-0.3,0.8-0.8,0.8
	S17.8,9.4,17.8,9V6.2H15c-0.4,0-0.8-0.3-0.8-0.8s0.3-0.8,0.8-0.8h2.8V2C17.8,1.6,18.1,1.2,18.5,1.2z"/>
<path class="st0" d="M12,1.2L12,1.2c-2.4,0-4.2,0-5.6,0.2S3.8,2,2.9,2.9S1.6,5,1.4,6.4s-0.2,3.2-0.2,5.5V12c0,2.3,0,4.1,0.2,5.5
	C1.6,19,2,20.2,2.9,21.1s2,1.3,3.5,1.5c1.4,0.2,3.2,0.2,5.5,0.2H12c2.3,0,4.1,0,5.5-0.2s2.6-0.6,3.5-1.5s1.3-2,1.5-3.5
	c0.2-1.4,0.2-3.2,0.2-5.5V12c0-0.4-0.3-0.8-0.8-0.8s-0.8,0.3-0.8,0.8c0,2.4,0,4.1-0.2,5.4c0,0.1,0,0.1,0,0.2L18.3,15
	c-1.3-1.2-3.2-1.3-4.7-0.3L13.3,15c-0.5,0.3-1.2,0.3-1.6-0.1l-4.3-4.3c-1.1-1.1-3-1.2-4.2-0.1l-0.5,0.4c0-1.8,0-3.2,0.2-4.2
	C3.1,5.3,3.4,4.6,4,4s1.3-0.9,2.6-1.1c1.3-0.2,3-0.2,5.4-0.2c0.4,0,0.8-0.3,0.8-0.8S12.4,1.2,12,1.2z M2.9,17.4
	c0.2,1.3,0.5,2,1.1,2.6s1.3,0.9,2.6,1.1s3,0.2,5.4,0.2s4.1,0,5.4-0.2s2-0.5,2.6-1.1c0.2-0.2,0.4-0.5,0.6-0.9L20.5,19l-3.2-2.9
	c-0.8-0.7-1.9-0.8-2.8-0.2l-0.3,0.2c-1.1,0.8-2.6,0.6-3.5-0.3l-4.3-4.3c-0.6-0.5-1.5-0.5-2.2,0l-1.5,1.3C2.8,14.8,2.8,16.2,2.9,17.4
	z"/>
</svg>
