<?xml version="1.0" encoding="utf-8"?>
<!-- Generator: Adobe Illustrator 27.5.0, SVG Export Plug-In . SVG Version: 6.00 Build 0)  -->
<svg version="1.1" id="Layer_1" xmlns="http://www.w3.org/2000/svg" xmlns:xlink="http://www.w3.org/1999/xlink" x="0px" y="0px"
	 viewBox="0 0 18 18" style="enable-background:new 0 0 18 18;" xml:space="preserve">
<style type="text/css">
	.st0{fill:#F28705;}
</style>
<g>
	<g>
		<path class="st0" d="M15,3.8c0.2,0,0.4,0.1,0.5,0.2c0.1,0.1,0.2,0.3,0.2,0.5S15.7,4.9,15.5,5c-0.1,0.1-0.3,0.2-0.5,0.2h-0.8l0,0.1
			l-0.7,9.8c0,0.4-0.2,0.7-0.5,1c-0.3,0.3-0.6,0.4-1,0.4H5.9c-0.4,0-0.7-0.1-1-0.4c-0.3-0.3-0.4-0.6-0.5-1L3.8,5.3c0,0,0,0,0-0.1H3
			C2.8,5.2,2.6,5.2,2.5,5C2.3,4.9,2.2,4.7,2.2,4.5S2.3,4.1,2.5,4S2.8,3.8,3,3.8H15z M10.5,1.5c0.2,0,0.4,0.1,0.5,0.2
			c0.1,0.1,0.2,0.3,0.2,0.5S11.2,2.6,11,2.8C10.9,2.9,10.7,3,10.5,3h-3C7.3,3,7.1,2.9,7,2.8C6.8,2.6,6.8,2.4,6.8,2.2S6.8,1.9,7,1.7
			c0.1-0.1,0.3-0.2,0.5-0.2H10.5z"/>
	</g>
</g>
</svg>
