<?xml version="1.0" encoding="utf-8"?>
<!-- Generator: Adobe Illustrator 27.5.0, SVG Export Plug-In . SVG Version: 6.00 Build 0)  -->
<svg version="1.1" id="Layer_1" xmlns="http://www.w3.org/2000/svg" xmlns:xlink="http://www.w3.org/1999/xlink" x="0px" y="0px"
	 viewBox="0 0 18 18" style="enable-background:new 0 0 18 18;" xml:space="preserve">
<style type="text/css">
	.st0{fill:#F2B705;}
</style>
<g>
	<g>
		<path class="st0" d="M15.1,3.8c0.2,0,0.4,0.1,0.5,0.2c0.1,0.1,0.2,0.3,0.2,0.5s0,0.4-0.2,0.5c-0.1,0.1-0.3,0.2-0.5,0.2h-0.8v0.1
			l-0.7,9.8c0,0.4-0.2,0.7-0.5,1c-0.3,0.3-0.6,0.4-1,0.4H6c-0.4,0-0.7-0.1-1-0.4c-0.3-0.3-0.4-0.6-0.5-1L3.8,5.3c0,0,0,0,0-0.1H3.1
			c-0.2,0-0.4,0-0.5-0.2C2.3,4.9,2.2,4.7,2.2,4.5S2.3,4.1,2.6,4c0.2-0.1,0.3-0.2,0.5-0.2H15.1z M10.6,1.5c0.2,0,0.4,0.1,0.5,0.2
			s0.2,0.3,0.2,0.5s0,0.4-0.2,0.6C10.9,2.9,10.8,3,10.6,3h-3C7.4,3,7.2,2.9,7.1,2.8C6.9,2.6,6.9,2.4,6.9,2.2s0-0.3,0.2-0.5
			c0.1-0.1,0.3-0.2,0.5-0.2H10.6z"/>
	</g>
</g>
</svg>
