<?xml version="1.0" encoding="utf-8"?>
<!-- Generator: Adobe Illustrator 27.5.0, SVG Export Plug-In . SVG Version: 6.00 Build 0)  -->
<svg version="1.1" id="Layer_1" xmlns="http://www.w3.org/2000/svg" xmlns:xlink="http://www.w3.org/1999/xlink" x="0px" y="0px"
	 viewBox="0 0 16 16" style="enable-background:new 0 0 16 16;" xml:space="preserve">
<style type="text/css">
	.st0{fill-rule:evenodd;clip-rule:evenodd;fill:#F2B705;}
</style>
<g>
	<g>
		<g>
			<path class="st0" d="M8,0.8h1c0.3,0,0.5,0.2,0.5,0.5S9.3,1.8,9,1.8H8c-1.6,0-2.7,0-3.6,0.1C3.6,2.1,3,2.3,2.7,2.7S2.1,3.6,2,4.4
				C1.8,5.3,1.8,6.4,1.8,8s0,2.7,0.1,3.6C2,12.5,2.2,13,2.6,13.3c0.4,0.4,1,0.6,1.8,0.7c0.9,0.1,2,0.1,3.6,0.1s2.7,0,3.6-0.1
				s1.4-0.3,1.7-0.7c0.4-0.4,0.6-0.9,0.7-1.7c0.1-0.9,0.1-2,0.1-3.6V7c0-0.3,0.2-0.5,0.5-0.5s0.5,0.2,0.5,0.5v1c0,1.5,0,2.7-0.1,3.7
				s-0.4,1.7-1,2.3s-1.4,0.9-2.3,1c-0.9,0.1-2.1,0.1-3.7,0.1l0,0c-1.5,0-2.7,0-3.7-0.1S2.6,14.6,2,14s-0.9-1.4-1-2.3
				C0.8,10.8,0.8,9.6,0.8,8l0,0c0-1.5,0-2.7,0.1-3.7s0.4-1.7,1-2.3s1.4-0.9,2.3-1C5.2,0.8,6.4,0.8,8,0.8z M11.2,1.5
				c0.9-0.9,2.4-0.9,3.3,0s0.9,2.4,0,3.3l-4.4,4.4C9.8,9.5,9.6,9.7,9.5,9.8c-0.2,0.2-0.4,0.3-0.7,0.4c-0.2,0.1-0.4,0.2-0.7,0.3
				l-1.9,0.6c-0.4,0.1-0.8,0-1-0.2c-0.3-0.3-0.4-0.7-0.2-1L5.6,8c0.1-0.3,0.2-0.5,0.3-0.7C6,7.1,6.1,6.8,6.3,6.6
				C6.4,6.4,6.6,6.3,6.8,6L11.2,1.5z M13.8,2.2c-0.5-0.5-1.4-0.5-1.9,0l-0.3,0.3c0,0.1,0,0.1,0.1,0.2c0.1,0.3,0.3,0.6,0.6,1
				c0.3,0.3,0.7,0.5,1,0.6c0.1,0,0.2,0.1,0.2,0.1l0.3-0.3C14.3,3.6,14.3,2.7,13.8,2.2z M12.7,5.2C12.4,5,12,4.8,11.6,4.4
				C11.2,4,11,3.6,10.8,3.3L7.5,6.6C7.2,6.9,7.1,7,7,7.1C6.9,7.3,6.8,7.4,6.7,7.6C6.6,7.7,6.6,7.9,6.5,8.3L6.2,9.1l0.7,0.7l0.9-0.3
				c0.4-0.1,0.5-0.2,0.7-0.2C8.6,9.2,8.7,9.1,8.9,9C9,8.9,9.1,8.8,9.4,8.5L12.7,5.2z"/>
		</g>
	</g>
</g>
</svg>
