<?xml version="1.0" encoding="utf-8"?>
<!-- Generator: Adobe Illustrator 27.5.0, SVG Export Plug-In . SVG Version: 6.00 Build 0)  -->
<svg version="1.1" id="Layer_1" xmlns="http://www.w3.org/2000/svg" xmlns:xlink="http://www.w3.org/1999/xlink" x="0px" y="0px"
	 viewBox="0 0 16 16" style="enable-background:new 0 0 16 16;" xml:space="preserve">
<style type="text/css">
	.st0{clip-path:url(#SVGID_00000080170911466463822500000012265805062039272633_);}
	.st1{fill-rule:evenodd;clip-rule:evenodd;fill:#F1F0F0;}
</style>
<g>
	<defs>
		<rect id="SVGID_1_" width="16" height="16"/>
	</defs>
	<clipPath id="SVGID_00000066509909163202074800000017497601668370711742_">
		<use xlink:href="#SVGID_1_"  style="overflow:visible;"/>
	</clipPath>
	<g style="clip-path:url(#SVGID_00000066509909163202074800000017497601668370711742_);">
		<path class="st1" d="M8,0.8h1c0.3,0,0.5,0.2,0.5,0.5c0,0.3-0.2,0.5-0.5,0.5H8c-1.6,0-2.7,0-3.6,0.1C3.6,2.1,3,2.3,2.7,2.7
			S2.1,3.6,2,4.4C1.8,5.3,1.8,6.4,1.8,8s0,2.7,0.1,3.6c0.1,0.9,0.3,1.4,0.7,1.7C3,13.7,3.6,13.9,4.4,14c0.9,0.1,2,0.1,3.6,0.1
			s2.7,0,3.6-0.1c0.9-0.1,1.4-0.3,1.7-0.7c0.4-0.4,0.6-0.9,0.7-1.7c0.1-0.9,0.1-2,0.1-3.6V7c0-0.3,0.2-0.5,0.5-0.5
			c0.3,0,0.5,0.2,0.5,0.5v1c0,1.5,0,2.7-0.1,3.7c-0.1,1-0.4,1.7-1,2.3c-0.6,0.6-1.4,0.9-2.3,1c-0.9,0.1-2.1,0.1-3.7,0.1H8
			c-1.5,0-2.7,0-3.7-0.1c-1-0.1-1.7-0.4-2.3-1c-0.6-0.6-0.9-1.4-1-2.3C0.8,10.8,0.8,9.6,0.8,8V8c0-1.5,0-2.7,0.1-3.7
			c0.1-1,0.4-1.7,1-2.3s1.4-0.9,2.3-1C5.2,0.8,6.4,0.8,8,0.8z M11.2,1.5c0.9-0.9,2.4-0.9,3.3,0c0.9,0.9,0.9,2.4,0,3.3l-4.4,4.4
			C9.8,9.5,9.6,9.7,9.5,9.8c-0.2,0.2-0.4,0.3-0.7,0.4c-0.2,0.1-0.4,0.2-0.7,0.3l-1.9,0.6c-0.4,0.1-0.8,0-1-0.2
			c-0.3-0.3-0.4-0.7-0.2-1l0.6-1.9c0.1-0.3,0.2-0.5,0.3-0.7c0.1-0.2,0.2-0.5,0.4-0.7c0.1-0.2,0.3-0.3,0.5-0.6L11.2,1.5z M13.8,2.2
			c-0.5-0.5-1.4-0.5-1.9,0l-0.3,0.3c0,0.1,0,0.1,0.1,0.2c0.1,0.3,0.3,0.6,0.6,1c0.3,0.3,0.7,0.5,1,0.6c0.1,0,0.2,0.1,0.2,0.1
			l0.3-0.3C14.3,3.6,14.3,2.7,13.8,2.2z M12.7,5.2C12.4,5,12,4.8,11.6,4.4C11.2,4,11,3.6,10.8,3.3L7.5,6.6C7.2,6.9,7.1,7,7,7.1
			C6.9,7.3,6.8,7.4,6.7,7.6C6.6,7.7,6.6,7.9,6.5,8.3L6.2,9.1l0.7,0.7l0.9-0.3c0.4-0.1,0.5-0.2,0.7-0.2C8.6,9.2,8.7,9.1,8.9,9
			C9,8.9,9.1,8.8,9.4,8.5L12.7,5.2z"/>
	</g>
</g>
</svg>
