<?xml version="1.0" encoding="utf-8"?>
<!-- Generator: Adobe Illustrator 27.5.0, SVG Export Plug-In . SVG Version: 6.00 Build 0)  -->
<svg version="1.1" id="Layer_1" xmlns="http://www.w3.org/2000/svg" xmlns:xlink="http://www.w3.org/1999/xlink" x="0px" y="0px"
	 viewBox="0 0 1000 1000" style="enable-background:new 0 0 1000 1000;" xml:space="preserve">
<style type="text/css">
	.st0{fill-rule:evenodd;clip-rule:evenodd;fill:#F2F0F0;}
	.st1{fill:#F2F0F0;}
</style>
<g>
	<path class="st0" d="M399.6,19.2c-102.7,0-186.8,84-186.8,186.8s84,186.8,186.8,186.8c102.7,0,186.8-84,186.8-186.8
		S502.3,19.2,399.6,19.2z M399.6,332c-70,0-126-56-126-126.1s56-126.1,126-126.1s126.1,56,126.1,126.1S469.6,332,399.6,332z"/>
	<path class="st1" d="M633,61.2c-14,0-28,14-28,28s14,28,28,28c46.7,0,88.7,37.3,88.7,88.7s-37.3,88.7-88.7,88.7c-14,0-28,14-28,28
		c0,14,14,28,28,28c79.4,0,144.7-65.4,144.7-144.7S712.4,61.2,633,61.2z"/>
	<path class="st0" d="M696.6,616c-8.3-47.4-46.4-87.1-91.6-115.9c-9.8-6.2-20.4-11.9-31.7-17.1c-48.2-22-109.5-34.3-173.8-34.3
		c-79.4,0-149.4,18.7-205.4,51.4c-56,28-98.1,74.7-93.4,135.4c0,29.8,11.9,56.9,30.7,80.7c12,15.2,27,29.1,43.4,41.4
		c6.2,4.6,12.7,9.1,19.2,13.3c51.3,32.7,126,51.3,205.4,51.3c3.4,0,6.7,0,10.1-0.1c34.2-0.7,66.5-4.9,96.7-12.2
		c9.2-10.8,14.2-24.4,14.2-38.8c0-9.2-2.1-18.2-6-26.2c-20.5,6-43,10.8-66.5,13.6c-15.7,1.9-32,2.9-48.5,2.9
		c-70,0-135.4-18.7-177.4-42c-2.1-1-4.1-2.1-6-3.1c-21.2-11.6-36.1-25.2-45.6-39.2c-9.5-14-13.7-28.3-13.7-41.7
		c0-28,18.7-56,65.4-84c4.7-3.1,9.7-6.1,14.9-8.9c2.6-1.4,5.2-2.7,7.9-3.9c41.1-19.5,96.2-29.2,154.6-29.2
		c34.8,0,68.4,4.6,98.6,12.1c25.4,6.3,48.4,14.7,67.5,24c3.9,1.9,7.7,3.9,11.3,5.9c23.2,11.6,39.5,25.5,50,40
		c2.5,3.4,4.6,6.8,6.5,10.2c21.6,1,43.2,5.5,63.2,14.5c0,0,0,0,0,0C696.7,616.1,696.7,616.1,696.6,616z"/>
	<path class="st1" d="M754.4,490.7c-14-4.7-32.7,4.7-32.7,23.3c-4.7,14,4.7,32.7,23.3,32.7c32.7,4.7,56,18.7,70,32.7
		c14,14,23.3,28,23.3,37.4c0,9.3-4.7,23.3-18.7,32.7c-14,14-32.7,23.3-60.7,32.7c-14,4.7-23.3,18.7-18.7,37.3
		c4.7,14,18.7,23.3,37.4,18.7c32.7-9.3,60.7-23.3,84-42s37.3-46.7,37.3-74.7c0-32.7-18.7-60.7-42-84
		C829.1,509.4,791.7,495.4,754.4,490.7z"/>
	<path class="st1" d="M696.6,616c0,0.1,0,0.1,0,0.2c-0.7,13.1-8.9,22.7-20.1,26.3c-18.7,4.5-32.6-5-37.2-19c-4-12.3-8-22.9-12.4-32
		c-5.6-11.7-11.9-21-19.7-29c-9.2-14.1-23.2-18.9-32.5-19c-2.7,0-5.7,0.7-9,2.1c-19.2-9.4-42.1-17.7-67.5-24
		c21.4-20.4,46.5-36.5,75.2-38.5c11.3,5.2,21.9,10.9,31.7,17.1C650.3,528.9,688.3,568.6,696.6,616z"/>
	<path class="st1" d="M170.5,677.2l-39,39c12,15.2,27,29.1,43.4,41.4l41.2-41.2C194.9,704.8,180.1,691.2,170.5,677.2z M514.6,745
		c-2.9-5.9-6.8-11.4-11.6-16.2L353.4,579.1c-11.3-11.3-26.4-17.6-42.4-17.6v60l137.1,137l12.6,12.5c0,0,0,0,0,0L311,920.8l-0.5-0.5
		v60.5c0.2,0,0.3,0,0.5,0c16,0,31.1-6.2,42.4-17.6L503,813.6c1.2-1.2,2.3-2.4,3.4-3.7c9.2-10.8,14.2-24.4,14.2-38.8
		C520.6,762,518.5,753,514.6,745z"/>
	<path class="st1" d="M245,538.6c-2.7,1.3-5.3,2.6-7.9,3.9v-3.9H245z"/>
</g>
</svg>
