<?xml version="1.0" encoding="utf-8"?>
<!-- Generator: Adobe Illustrator 27.5.0, SVG Export Plug-In . SVG Version: 6.00 Build 0)  -->
<svg version="1.1" id="Layer_1" xmlns="http://www.w3.org/2000/svg" xmlns:xlink="http://www.w3.org/1999/xlink" x="0px" y="0px"
	 viewBox="0 0 1000 1000" style="enable-background:new 0 0 1000 1000;" xml:space="preserve">
<style type="text/css">
	.st0{fill:#F0F0F0;}
</style>
<g>
	<path class="st0" d="M0,892.6c3.3-21.1,5.7-42.4,10-63.4c19.1-93.1,63.6-172.5,131.7-238.6c45.8-44.5,98.9-77.9,158.7-100.4
		c2.4-0.9,4.7-2,8.4-3.5c-71.4-60.3-104.9-136.2-94.8-228.7c7.3-67.3,39-122.8,91.7-165.3c106.2-85.6,259.2-70.9,348.8,33
		c79.5,92.2,89.4,257.4-37.3,360.9c4,1.7,7.4,3.1,10.8,4.5c144.2,58.7,238.7,162.5,281.9,312.2c11.1,38.6,15.8,78.3,15.9,118.5
		c0,24.5-16.3,40.9-40.9,40.9c-116.2,0.1-232.4,0-348.5,0c-161.7,0-323.5-0.3-485.2,0.3c-24.1,0.1-41.6-6.6-51-29.6
		C0,919.9,0,906.2,0,892.6z M845.2,884.5C824,680,642.7,521.4,426.8,541.2c-191,17.5-331.1,172.9-345.5,343.3
		C335.7,884.5,590.2,884.5,845.2,884.5z M635.2,288.1c0.1-95.2-77.3-172.8-172.3-172.9C368,115.2,290.6,192.8,290.5,288
		c-0.1,95.2,77.3,172.8,172.3,172.9C557.8,461,635.2,383.4,635.2,288.1z"/>
	<path class="st0" d="M1000,296.9c-12.9,36.7-44.3,30.5-74.3,30.6c0,12,0.2,23.6,0,35.1c-0.4,20.9-15.2,36.6-36.4,38.7
		c-18.7,1.8-38-12.2-40.9-31.5c-1.7-11.5-0.6-23.4-0.8-35.1c0-1.9-0.2-3.8-0.3-7.2c-10.9,0-21.5,0.3-32-0.1
		c-25.7-0.7-42.6-17.6-41.8-41.4c0.6-17.6,13.7-33.7,31.2-36c13.7-1.8,27.8-1.6,42.9-2.3c0-10.5-0.1-21.2,0-31.8
		c0.2-23.7,16.5-41.2,38.7-41.5c22.3-0.3,39.2,17.6,39.3,41.8c0.1,10.3,0,20.7,0,32.2c8.9,0,16.9,0.4,24.9-0.1
		c23.8-1.4,40.9,7.6,49.3,30.8C1000,285.2,1000,291,1000,296.9z"/>
</g>
</svg>
