<?xml version="1.0" encoding="utf-8"?>
<!-- Generator: Adobe Illustrator 27.5.0, SVG Export Plug-In . SVG Version: 6.00 Build 0)  -->
<svg version="1.1" id="Layer_1" xmlns="http://www.w3.org/2000/svg" xmlns:xlink="http://www.w3.org/1999/xlink" x="0px" y="0px"
	 viewBox="0 0 24 24" style="enable-background:new 0 0 24 24;" xml:space="preserve">
<style type="text/css">
	.st0{fill:#F28705;}
</style>
<path class="st0" d="M9.1,17.6l-0.4,0.5l0,0L9.1,17.6z M11.7,5.9l-0.4,0.4c0.1,0.1,0.3,0.2,0.4,0.2c0.2,0,0.3-0.1,0.4-0.2L11.7,5.9z
	 M14.4,17.6L14,17.1L14.4,17.6z M9.4,17.1c-1.3-1-2.8-2.1-3.9-3.4C4.4,12.5,3.6,11,3.6,9.1H2.4c0,2.3,1,4.1,2.2,5.5
	c1.2,1.4,2.8,2.5,4.1,3.5L9.4,17.1z M3.6,9.1c0-1.9,1.1-3.5,2.5-4.2c1.4-0.7,3.3-0.5,5.1,1.4l0.9-0.8C10,3.3,7.6,3,5.6,3.9
	C3.7,4.7,2.4,6.8,2.4,9.1H3.6z M8.7,18.1c0.4,0.4,0.9,0.7,1.4,1c0.5,0.3,1,0.5,1.6,0.5v-1.2c-0.3,0-0.6-0.1-1-0.3
	c-0.4-0.2-0.8-0.6-1.3-0.9L8.7,18.1z M14.7,18.1c1.2-1,2.8-2.1,4.1-3.5c1.3-1.4,2.2-3.2,2.2-5.5h-1.2c0,1.9-0.8,3.4-1.9,4.7
	c-1.1,1.3-2.6,2.3-3.9,3.4L14.7,18.1z M21,9.1c0-2.3-1.3-4.4-3.2-5.2c-1.9-0.9-4.4-0.5-6.5,1.7l0.9,0.8c1.8-1.9,3.7-2.1,5.1-1.4
	c1.5,0.7,2.5,2.3,2.5,4.2H21z M14,17.1c-0.5,0.4-0.9,0.7-1.3,0.9c-0.4,0.2-0.7,0.3-1,0.3v1.2c0.6,0,1.1-0.2,1.6-0.5
	c0.5-0.3,1-0.7,1.4-1L14,17.1z"/>
</svg>
