<?xml version="1.0" encoding="utf-8"?>
<!-- Generator: Adobe Illustrator 27.5.0, SVG Export Plug-In . SVG Version: 6.00 Build 0)  -->
<svg version="1.1" id="Layer_1" xmlns="http://www.w3.org/2000/svg" xmlns:xlink="http://www.w3.org/1999/xlink" x="0px" y="0px"
	 viewBox="0 0 24 24" style="enable-background:new 0 0 24 24;" xml:space="preserve">
<style type="text/css">
	.st0{fill-rule:evenodd;clip-rule:evenodd;fill:#F28705;}
</style>
<path class="st0" d="M5.7,4c-1.8,0.8-3.1,2.7-3.1,5c0,2.3,1,4.2,2.3,5.7c1.1,1.3,2.5,2.3,3.9,3.4c0.3,0.2,0.6,0.5,0.9,0.7
	c0.6,0.4,1.1,0.8,1.5,1.1c0.5,0.3,0.9,0.4,1.2,0.4c0.3,0,0.7-0.1,1.2-0.4c0.5-0.3,1-0.7,1.5-1.1c0.3-0.2,0.6-0.5,0.9-0.7
	c1.3-1,2.7-2.1,3.8-3.4c1.4-1.6,2.3-3.4,2.3-5.7c0-2.3-1.3-4.2-3.1-5c-1.7-0.8-4-0.6-6.2,1.7C12.9,5.9,12.7,6,12.5,6
	c-0.2,0-0.4-0.1-0.6-0.2C9.7,3.4,7.4,3.2,5.7,4z M12.5,4.1C10,1.8,7.3,1.5,5,2.6C2.6,3.6,1,6.2,1,9.1c0,2.8,1.2,5,2.7,6.8
	c1.2,1.4,2.8,2.6,4.1,3.6c0.3,0.2,0.6,0.5,0.9,0.7c0.5,0.4,1.1,0.9,1.7,1.2c0.6,0.3,1.3,0.6,2,0.6c0.7,0,1.4-0.3,2-0.6
	c0.6-0.3,1.2-0.8,1.7-1.2c0.3-0.2,0.6-0.5,0.9-0.7c1.3-1,2.9-2.2,4.1-3.6c1.6-1.8,2.7-3.9,2.7-6.8c0-2.9-1.6-5.4-4-6.5
	C17.7,1.5,15,1.8,12.5,4.1z"/>
</svg>
