<?xml version="1.0" encoding="utf-8"?>
<!-- Generator: Adobe Illustrator 27.5.0, SVG Export Plug-In . SVG Version: 6.00 Build 0)  -->
<svg version="1.1" id="Layer_1" xmlns="http://www.w3.org/2000/svg" xmlns:xlink="http://www.w3.org/1999/xlink" x="0px" y="0px"
	 viewBox="0 0 24 24" style="enable-background:new 0 0 24 24;" xml:space="preserve">
<style type="text/css">
	.st0{fill:#F2B705;}
	.st1{fill-rule:evenodd;clip-rule:evenodd;fill:#F2B705;}
</style>
<path class="st0" d="M9,17.2c-0.4,0-0.8,0.3-0.8,0.8s0.3,0.8,0.8,0.8h6c0.4,0,0.8-0.3,0.8-0.8s-0.3-0.8-0.8-0.8H9z"/>
<path class="st1" d="M12,1.2c-0.7,0-1.4,0.2-2,0.5C9.3,2.1,8.5,2.6,7.5,3.2l-2,1.3c-1,0.6-1.7,1-2.3,1.5s-1,0.9-1.4,1.5
	c-0.3,0.6-0.5,1.2-0.5,2c-0.1,0.7-0.1,1.6-0.1,2.7v1.6c0,1.9,0,3.4,0.2,4.6c0.2,1.2,0.5,2.2,1.2,2.9c0.7,0.8,1.7,1.1,2.9,1.3
	c1.1,0.2,2.6,0.2,4.4,0.2H14c1.8,0,3.3,0,4.4-0.2c1.2-0.2,2.1-0.5,2.9-1.3c0.7-0.8,1.1-1.7,1.2-2.9c0.2-1.2,0.2-2.7,0.2-4.6v-1.6
	c0-1.1,0-2-0.1-2.7s-0.2-1.4-0.5-2S21.3,6.4,20.7,6s-1.3-0.9-2.2-1.5l-2.1-1.3c-1-0.6-1.8-1.1-2.4-1.4C13.4,1.5,12.7,1.2,12,1.2z
	 M8.3,4.5c1-0.6,1.7-1.1,2.3-1.4s1-0.4,1.4-0.4s0.8,0.1,1.4,0.4c0.6,0.3,1.3,0.7,2.3,1.4l2,1.2c1,0.6,1.6,1,2.1,1.4s0.8,0.7,1,1
	c0.2,0.4,0.3,0.8,0.4,1.4c0.1,0.6,0.1,1.5,0.1,2.6v1.5c0,2,0,3.4-0.1,4.4s-0.4,1.7-0.8,2.1s-1,0.7-2,0.8C17.4,21,16,21,14.1,21h-4
	c-1.9,0-3.3,0-4.3-0.1s-1.6-0.4-2-0.8S3.1,19,3,18c-0.1-1.1-0.1-2.5-0.1-4.4v-1.5c0-1.2,0-2,0.1-2.6s0.2-1,0.4-1.4
	c0.2-0.4,0.5-0.7,1-1c0.5-0.4,1.2-0.8,2.1-1.4L8.3,4.5z"/>
</svg>
