<?xml version="1.0" encoding="utf-8"?>
<!-- Generator: Adobe Illustrator 27.5.0, SVG Export Plug-In . SVG Version: 6.00 Build 0)  -->
<svg version="1.1" id="Layer_1" xmlns="http://www.w3.org/2000/svg" xmlns:xlink="http://www.w3.org/1999/xlink" x="0px" y="0px"
	 viewBox="0 0 24 24" style="enable-background:new 0 0 24 24;" xml:space="preserve">
<style type="text/css">
	.st0{fill:#F2B705;}
	.st1{fill-rule:evenodd;clip-rule:evenodd;fill:#F2B705;}
</style>
<path class="st0" d="M5.5,12.5c-0.3-0.3-0.3-0.8,0-1.1l2-2c0.3-0.3,0.8-0.3,1.1,0s0.3,0.8,0,1.1l-0.7,0.7H15c0.4,0,0.8,0.3,0.8,0.8
	s-0.3,0.8-0.8,0.8H7.8l0.7,0.7c0.3,0.3,0.3,0.8,0,1.1s-0.8,0.3-1.1,0L5.5,12.5z"/>
<path class="st1" d="M13.9,1.2H15c1.4,0,2.5,0,3.3,0.1c0.9,0.1,1.7,0.4,2.3,1s0.9,1.4,1,2.3s0.1,2,0.1,3.3V16c0,1.4,0,2.5-0.1,3.3
	c-0.1,0.9-0.4,1.7-1,2.3c-0.6,0.6-1.4,0.9-2.3,1s-2,0.1-3.3,0.1h-1.1c-1.4,0-2.5,0-3.3-0.1c-0.9-0.1-1.7-0.4-2.3-1
	c-0.4-0.4-0.6-0.9-0.8-1.4c-1,0-1.7,0-2.4-0.1c-0.8-0.1-1.4-0.3-2-0.9c-0.5-0.5-0.8-1.2-0.9-2c-0.1-0.7-0.1-1.7-0.1-2.8v-5
	c0-1.1,0-2.1,0.1-2.8c0.1-0.8,0.3-1.4,0.9-2c0.5-0.5,1.2-0.8,2-0.9c0.6-0.1,1.4-0.1,2.4-0.1c0.2-0.5,0.4-1,0.8-1.4
	c0.6-0.6,1.4-0.9,2.3-1C11.5,1.2,12.6,1.2,13.9,1.2z M7.3,17c0,0.6,0,1.2,0.1,1.7c-0.8,0-1.5,0-1.9-0.1c-0.6-0.1-0.9-0.2-1.1-0.4
	C4.2,18,4.1,17.7,4,17.1s-0.1-1.4-0.1-2.6v-5c0-1.2,0-2,0.1-2.6C3.9,6.3,4.1,6,4.3,5.8c0.2-0.2,0.5-0.3,1.1-0.4
	c0.5-0.1,1.1-0.1,1.9-0.1c0,0.5,0,1.1-0.1,1.7c0,0.4,0.3,0.8,0.7,0.8c0.4,0,0.8-0.3,0.8-0.7c0-1.1,0-1.9,0.1-2.5
	C9,4,9.2,3.7,9.4,3.4c0.3-0.3,0.7-0.5,1.4-0.6c0.8-0.1,1.8-0.1,3.2-0.1h1c1.4,0,2.4,0,3.2,0.1c0.7,0.1,1.1,0.3,1.4,0.6
	s0.5,0.7,0.6,1.4c0.1,0.8,0.1,1.8,0.1,3.2v8c0,1.4,0,2.4-0.1,3.2c-0.1,0.7-0.3,1.1-0.6,1.4s-0.7,0.5-1.4,0.6
	c-0.8,0.1-1.8,0.1-3.2,0.1h-1c-1.4,0-2.4,0-3.2-0.1c-0.7-0.1-1.1-0.3-1.4-0.6C9.2,20.3,9,20,8.9,19.5c-0.1-0.6-0.1-1.4-0.1-2.5
	c0-0.4-0.3-0.7-0.8-0.7C7.6,16.3,7.2,16.6,7.3,17z"/>
</svg>
