<?xml version="1.0" encoding="UTF-8"?>
<svg id="Layer_2" data-name="Layer 2" xmlns="http://www.w3.org/2000/svg" viewBox="0 0 345.78 323.65">
  <defs>
    <style>
      .cls-1 {
        fill: #f1f0f0;
        stroke-width: 0px;
      }
    </style>
  </defs>
  <g id="Logo">
    <g id="Logo_WT">
      <g>
        <path class="cls-1" d="m117.45,154.56v-7.21s1.96-.99,3.37-2.34c7.08-6.85,27.23-26.51,50.99-39.72,8.17-4.55,16.37-8.07,23.94-9.56,2.92-.58,5.76-.86,8.44-.79,34.01.94,81.51-44.37,96.16-94.94,0,0,83.67,71.83,23.9,166.55,0,0-20.27,38.35-64.34,49.93-9.21,2.39-19.43,3.64-30.72,3.12-1.44-.03-2.87-.14-4.35-.26-30.71-2.55-48.8-4.67-57.39-10.2-9.59-6.18-12.03-8.44-12.03-8.44l3.96-26.64,6.51,4.19c10.52,6.79,28.64,15.76,51.42,16.24,1.5.04,3.05.04,4.59-.01,9.37-.27,18.46-1.45,27.13-3.65,27.82-7,51.14-24.21,64.25-54.09,17.21-39.21-5.42-89.69-5.42-89.69,0,0-23.32,54.79-95.32,73.36l-3.49.77c-7.21.44-16.08,2.82-24.69,6.2-10.44,4.09-20.49,9.66-26.68,15.01-11.31,9.78-18.62,21.58-21.95,35.38-1.83,7.59-2.21,16.96-1.44,25.19l-8.83-20.65"/>
        <path class="cls-1" d="m126.7,151.37c-.7-3.18-5.24-12.05-7.02-14.94C81.89,75.42,43.28,54.15,43.28,54.15c0,0,39.17-33.47,91.16,5.4,12.93,9.67,25.34,25.93,37.37,45.74,4.24,6.98,4.33,6.48,8.47,14.19,8.61-3.38,17.48-5.76,24.69-6.2,1.55-.38,2.64-.61,3.15-.7-5.62-9.1-7.05-9.43-12.37-16.85-19.36-27.02-36.43-43.81-48.68-54.38-11.3-9.82-44.13-24.27-59.07-25C36.63,13.83,0,62.26,0,62.26c73.28,11.13,108.8,109.81,108.8,109.81,0,0-5.74,68.09,49.9,116.65,51.38,44.87,171.78,33.69,171.78,33.69l-23.25-23.66s-68.18,5.58-111.58-13.7c-19.66-12.12-25.96-16.12-33.98-24.43-10.58-10.96-18.27-23.73-23.07-38.3-2.18-6.64-3.62-13.08-4.31-19.35h0"/>
      </g>
    </g>
  </g>
</svg>