<?xml version="1.0" encoding="utf-8"?>
<!-- Generator: Adobe Illustrator 27.5.0, SVG Export Plug-In . SVG Version: 6.00 Build 0)  -->
<svg version="1.1" id="Layer_2_00000137096239269642085930000002141722168074861189_"
	 xmlns="http://www.w3.org/2000/svg" xmlns:xlink="http://www.w3.org/1999/xlink" x="0px" y="0px" viewBox="0 0 345.8 323.6"
	 style="enable-background:new 0 0 345.8 323.6;" xml:space="preserve">
<style type="text/css">
	.st0{fill:#F2B705;}
	.st1{fill:#F1F0F0;}
</style>
<path class="st0" d="M142.4,74.7c-0.3-0.3-0.7-0.6-1-0.8c-0.7-0.6-1.4-1.1-2.1-1.7c-45.5-34.1-79.8-4.7-79.8-4.7
	s33.8,18.7,66.9,72.1c0.7,1.1,1.9,3.2,3,5.5c1.9-1.8,4.3-4.1,7.2-6.7c1.3-1.2,2.8-2.5,4.3-3.8c8.3-7.2,19.2-15.7,31.1-22.4
	C162.4,96.5,152.5,83.4,142.4,74.7z M142.4,74.7c-0.3-0.3-0.7-0.6-1-0.8c-0.7-0.6-1.4-1.1-2.1-1.7c-45.5-34.1-79.8-4.7-79.8-4.7
	s33.8,18.7,66.9,72.1c0.7,1.1,1.9,3.2,3,5.5c1.9-1.8,4.3-4.1,7.2-6.7c1.3-1.2,2.8-2.5,4.3-3.8c8.3-7.2,19.2-15.7,31.1-22.4
	C162.4,96.5,152.5,83.4,142.4,74.7z M156,88.9c-4.5-5.5-9-10.3-13.5-14.2c-0.3-0.3-0.7-0.6-1-0.8c-0.7-0.6-1.4-1.1-2.1-1.7
	c-45.5-34.1-79.8-4.7-79.8-4.7s33.8,18.7,66.9,72.1c0.7,1.1,1.9,3.2,3,5.5c1.9-1.8,4.3-4.1,7.2-6.7c1.3-1.2,2.8-2.5,4.3-3.8
	c8.3-7.2,19.2-15.6,31.1-22.3c0,0,0.1,0,0.1-0.1C166.8,103.6,161.4,95.7,156,88.9z M156,88.9c-4.5-5.5-9-10.3-13.5-14.2
	c-0.3-0.3-0.7-0.6-1-0.8c-0.7-0.6-1.4-1.1-2.1-1.7c-45.5-34.1-79.8-4.7-79.8-4.7s33.8,18.7,66.9,72.1c0.7,1.1,1.9,3.2,3,5.5
	c1.9-1.8,4.3-4.1,7.2-6.7c1.3-1.2,2.8-2.5,4.3-3.8c8.3-7.2,19.2-15.6,31.1-22.3c0,0,0.1,0,0.1-0.1C166.8,103.6,161.4,95.7,156,88.9z
	 M315.7,0H30C13.4,0,0,13.4,0,30v263.7c0,16.6,13.4,30,30,30h285.7c16.6,0,30-13.4,30-30V30C345.7,13.4,332.3,0,315.7,0z
	 M305.4,165.9c0,0-17.8,33.6-56.3,43.7c-8.1,2.1-17,3.2-26.9,2.7c-1.2,0-2.5-0.1-3.9-0.3c-26.9-2.3-42.7-4.1-50.2-8.9
	c-8.4-5.4-10.5-7.4-10.5-7.4l3.5-23.3l5.7,3.7c9.2,6,25,13.8,45,14.2h4c8.2-0.3,16.2-1.2,23.7-3.1c24.3-6.1,44.7-21.2,56.2-47.4
	c15-34.3-4.7-78.5-4.7-78.5s-20.4,48-83.4,64.2l-12.4,3.1l-9.2,2.3c-2.2,0.5-4.3,1.2-6.4,2.2c-7.9,3.4-15.3,7.7-20,11.7
	c-9.9,8.6-16.3,18.9-19.2,31c-1.5,6.6-1.9,14.7-1.2,21.8v0.1c0.6,5.5,1.8,11.2,3.8,17c4.2,12.8,10.9,23.9,20.2,33.5
	c7,7.3,12.5,10.8,29.8,21.4c38,16.9,97.7,12,97.7,12l20.3,20.7c0,0-105.4,9.8-150.4-29.5c-48.7-42.5-43.7-102.2-43.7-102.2
	s-31.2-86.3-95.3-96c0,0,32-42.5,77-40.2c13.1,0.6,41.9,13.3,51.7,21.9c10.8,9.3,25.6,24,42.6,47.6c29.8,0.7,78.6-39.6,91.5-83.8
	C284.5,20.1,357.7,83,305.4,165.9z M142.4,74.7c-0.3-0.3-0.7-0.6-1-0.8c-0.7-0.6-1.4-1.1-2.1-1.7c-45.5-34.1-79.8-4.7-79.8-4.7
	s33.8,18.7,66.9,72.1c0.7,1.1,1.9,3.2,3,5.5c1.9-1.8,4.3-4.1,7.2-6.7c1.3-1.2,2.8-2.5,4.3-3.8c8.3-7.2,19.2-15.6,31.1-22.3
	c0,0,0.1,0,0.1-0.1c-5.3-8.6-10.7-16.5-16.1-23.3C151.5,83.4,147,78.6,142.4,74.7z M156,88.9c-4.5-5.5-9-10.3-13.5-14.2
	c-0.3-0.3-0.7-0.6-1-0.8c-0.7-0.6-1.4-1.1-2.1-1.7c-45.5-34.1-79.8-4.7-79.8-4.7s33.8,18.7,66.9,72.1c0.7,1.1,1.9,3.2,3,5.5
	c1.9-1.8,4.3-4.1,7.2-6.7c1.3-1.2,2.8-2.5,4.3-3.8c8.3-7.2,19.2-15.6,31.1-22.3c0,0,0.1,0,0.1-0.1C166.8,103.6,161.4,95.7,156,88.9z
	 M156,88.9c-4.5-5.5-9-10.3-13.5-14.2c-0.3-0.3-0.7-0.6-1-0.8c-0.7-0.6-1.4-1.1-2.1-1.7c-45.5-34.1-79.8-4.7-79.8-4.7
	s33.8,18.7,66.9,72.1c0.7,1.1,1.9,3.2,3,5.5c1.9-1.8,4.3-4.1,7.2-6.7c1.3-1.2,2.8-2.5,4.3-3.8c8.3-7.2,19.2-15.6,31.1-22.3
	c0,0,0.1,0,0.1-0.1C166.8,103.6,161.4,95.7,156,88.9z"/>
<path class="st1" d="M193,269.6c-17.3-10.6-22.8-14.1-29.8-21.4c-9.3-9.6-16-20.7-20.2-33.5c-2-5.8-3.2-11.5-3.8-17v-0.1
	c-0.7-7.1-0.3-15.2,1.2-21.8c2.9-12.1,9.3-22.4,19.2-31c4.7-4,12.1-8.3,20-11.7c2.1-1,4.2-1.7,6.4-2.2l9.2-2.3l12.4-3.1
	c63-16.2,83.4-64.2,83.4-64.2s19.7,44.2,4.7,78.5c-11.5,26.2-31.9,41.3-56.2,47.4c-7.5,1.9-15.5,2.8-23.7,3.1h-4
	c-20-0.4-35.8-8.2-45-14.2l-5.7-3.7l-3.5,23.3c0,0,2.1,2,10.5,7.4c7.5,4.8,23.3,6.6,50.2,8.9c1.4,0.2,2.7,0.3,3.9,0.3
	c9.9,0.5,18.8-0.6,26.9-2.7c38.5-10.1,56.3-43.7,56.3-43.7c52.3-82.9-20.9-145.8-21-145.8c-12.9,44.2-61.7,84.5-91.5,83.8
	c-17-23.6-31.8-38.3-42.6-47.6c-9.8-8.6-38.6-21.3-51.7-21.9c-45-2.3-77,40.2-77,40.2c64.1,9.7,95.3,96,95.3,96s-5,59.7,43.7,102.2
	c45,39.3,150.4,29.5,150.4,29.5l-20.3-20.7C290.7,281.6,231,286.5,193,269.6z M129.4,145.1c-1.1-2.3-2.3-4.4-3-5.5
	C93.3,86.2,59.5,67.5,59.5,67.5s34.3-29.4,79.8,4.7c0.7,0.5,1.4,1.1,2.1,1.7c0.3,0.3,0.7,0.6,1,0.8c4.6,3.9,9.1,8.7,13.5,14.2
	c5.5,6.8,10.8,14.7,16.1,23.3c0,0.1-0.1,0.1-0.1,0.1c-12,6.6-22.8,15.1-31.1,22.3c-1.5,1.3-3,2.6-4.3,3.8
	C133.7,141,131.3,143.3,129.4,145.1z"/>
</svg>
