<?xml version="1.0" encoding="utf-8"?>
<!-- Generator: Adobe Illustrator 27.5.0, SVG Export Plug-In . SVG Version: 6.00 Build 0)  -->
<svg version="1.1" id="Layer_1" xmlns="http://www.w3.org/2000/svg" xmlns:xlink="http://www.w3.org/1999/xlink" x="0px" y="0px"
	 viewBox="0 0 20 20" style="enable-background:new 0 0 20 20;" xml:space="preserve">
<style type="text/css">
	.st0{fill-rule:evenodd;clip-rule:evenodd;fill:#F1F0F0;}
	.st1{fill:#F1F0F0;}
</style>
<path class="st0" d="M7.5,1c-2.2,0-4,1.8-4,4s1.8,4,4,4s4-1.8,4-4S9.7,1,7.5,1z M4.8,5c0-1.5,1.2-2.7,2.7-2.7s2.7,1.2,2.7,2.7
	S9,7.7,7.5,7.7S4.8,6.5,4.8,5z"/>
<path class="st1" d="M12.5,1.9c-0.3,0-0.6,0.3-0.6,0.6s0.3,0.6,0.6,0.6c1,0,1.9,0.8,1.9,1.9s-0.8,1.9-1.9,1.9
	c-0.3,0-0.6,0.3-0.6,0.6s0.3,0.6,0.6,0.6c1.7,0,3.1-1.4,3.1-3.1S14.2,1.9,12.5,1.9z"/>
<path class="st0" d="M3.1,11.3c1.2-0.7,2.7-1.1,4.4-1.1s3.3,0.4,4.4,1.1c1.1,0.7,2,1.7,2,2.9s-0.9,2.2-2,2.9
	c-1.2,0.7-2.7,1.1-4.4,1.1s-3.3-0.4-4.4-1.1s-2-1.7-2-2.9C1,12.9,1.9,11.9,3.1,11.3z M3.7,12.4c-1,0.6-1.4,1.2-1.4,1.8
	s0.4,1.3,1.4,1.8c0.9,0.5,2.3,0.9,3.8,0.9s2.9-0.4,3.8-0.9c1-0.6,1.4-1.2,1.4-1.8s-0.4-1.3-1.4-1.8c-0.9-0.5-2.3-0.9-3.8-0.9
	S4.6,11.8,3.7,12.4z"/>
<path class="st1" d="M15.1,11.1c-0.3-0.1-0.7,0.1-0.7,0.5c-0.1,0.3,0.1,0.7,0.5,0.7c0.7,0.1,1.2,0.4,1.5,0.7
	c0.3,0.3,0.5,0.6,0.5,0.8s-0.1,0.5-0.4,0.7c-0.3,0.3-0.7,0.5-1.3,0.7c-0.3,0.1-0.5,0.4-0.4,0.8c0.1,0.3,0.4,0.5,0.8,0.4
	c0.7-0.2,1.3-0.5,1.8-0.9s0.8-1,0.8-1.6c0-0.7-0.4-1.3-0.9-1.8C16.7,11.5,15.9,11.2,15.1,11.1z"/>
</svg>
