<?xml version="1.0" encoding="utf-8"?>
<!-- Generator: Adobe Illustrator 27.5.0, SVG Export Plug-In . SVG Version: 6.00 Build 0)  -->
<svg version="1.1" id="Layer_1" xmlns="http://www.w3.org/2000/svg" xmlns:xlink="http://www.w3.org/1999/xlink" x="0px" y="0px"
	 viewBox="0 0 24 24" style="enable-background:new 0 0 24 24;" xml:space="preserve">
<style type="text/css">
	.st0{fill:#F1F0F0;}
	.st1{fill-rule:evenodd;clip-rule:evenodd;fill:#F1F0F0;}
</style>
<path class="st0" d="M9.8,12c0,0.4-0.3,0.7-0.7,0.7S8.4,12.4,8.4,12s0.3-0.7,0.7-0.7C9.4,11.3,9.8,11.6,9.8,12z"/>
<path class="st0" d="M12.7,12c0,0.4-0.3,0.7-0.7,0.7s-0.7-0.3-0.7-0.7s0.3-0.7,0.7-0.7S12.7,11.6,12.7,12z"/>
<path class="st0" d="M15.7,12c0,0.4-0.3,0.7-0.7,0.7s-0.7-0.3-0.7-0.7s0.3-0.7,0.7-0.7S15.7,11.6,15.7,12z"/>
<path class="st1" d="M20,12c0-4.4-3.6-8-8-8s-8,3.6-8,8c0,1.3,0.3,2.5,0.8,3.6c0.1,0.2,0.1,0.3,0.1,0.5l-0.4,1.7
	c-0.3,1.1,0.7,2.2,1.9,1.9L8,19.1c0.1,0,0.3,0,0.5,0.1c1,0.5,2.2,0.8,3.5,0.8C16.4,20,20,16.4,20,12z M12,5.1c3.8,0,6.9,3.1,6.9,6.9
	s-3.1,6.9-6.9,6.9c-1.1,0-2.1-0.3-3.1-0.7C8.6,18,8.1,17.9,7.7,18L6,18.5c-0.3,0.1-0.6-0.2-0.5-0.5L6,16.3c0.1-0.4,0-0.9-0.1-1.2
	c-0.5-0.9-0.7-2-0.7-3.1C5.1,8.2,8.2,5.1,12,5.1z"/>
</svg>
