<?xml version="1.0" encoding="utf-8"?>
<!-- Generator: Adobe Illustrator 27.5.0, SVG Export Plug-In . SVG Version: 6.00 Build 0)  -->
<svg version="1.1" id="Layer_1" xmlns="http://www.w3.org/2000/svg" xmlns:xlink="http://www.w3.org/1999/xlink" x="0px" y="0px"
	 viewBox="0 0 24 24" style="enable-background:new 0 0 24 24;" xml:space="preserve">
<style type="text/css">
	.st0{fill:#F28705;}
	.st1{fill-rule:evenodd;clip-rule:evenodd;fill:#F28705;}
</style>
<path class="st0" d="M9.1,12c0,0.5-0.4,0.9-0.9,0.9S7.3,12.5,7.3,12s0.4-0.9,0.9-0.9C8.6,11.1,9.1,11.5,9.1,12z"/>
<path class="st0" d="M12.9,12c0,0.5-0.4,0.9-0.9,0.9s-0.9-0.4-0.9-0.9s0.4-0.9,0.9-0.9S12.9,11.5,12.9,12z"/>
<path class="st0" d="M16.9,12c0,0.5-0.4,0.9-0.9,0.9c-0.5,0-0.9-0.4-0.9-0.9s0.4-0.9,0.9-0.9C16.5,11.1,16.9,11.5,16.9,12z"/>
<path class="st1" d="M22.5,12c0-5.8-4.7-10.5-10.5-10.5S1.5,6.2,1.5,12c0,1.7,0.4,3.3,1,4.7c0.1,0.3,0.1,0.4,0.1,0.7l-0.5,2.2
	c-0.4,1.4,0.9,2.9,2.5,2.5l2.1-0.8c0.1,0,0.4,0,0.7,0.1c1.3,0.7,2.9,1,4.6,1C17.8,22.5,22.5,17.8,22.5,12z M12,3c5,0,9,4.1,9,9
	s-4.1,9-9,9c-1.4,0-2.8-0.4-4.1-0.9c-0.4-0.3-1-0.4-1.6-0.3l-2.2,0.7c-0.4,0.1-0.8-0.3-0.7-0.7l0.7-2.2c0.1-0.5,0-1.2-0.1-1.6
	c-0.7-1.2-0.9-2.6-0.9-4.1C3,7,7,3,12,3z"/>
</svg>
