<?xml version="1.0" encoding="utf-8"?>
<!-- Generator: Adobe Illustrator 27.5.0, SVG Export Plug-In . SVG Version: 6.00 Build 0)  -->
<svg version="1.1" id="Layer_1" xmlns="http://www.w3.org/2000/svg" xmlns:xlink="http://www.w3.org/1999/xlink" x="0px" y="0px"
	 viewBox="0 0 24 24" style="enable-background:new 0 0 24 24;" xml:space="preserve">
<style type="text/css">
	.st0{fill-rule:evenodd;clip-rule:evenodd;fill:#F2B705;}
</style>
<path class="st0" d="M11.5,2.8c-4.8,0-8.8,3.9-8.8,8.8c0,4.8,3.9,8.8,8.8,8.8c4.8,0,8.8-3.9,8.8-8.8C20.2,6.7,16.3,2.8,11.5,2.8z
	 M1.2,11.5c0-5.7,4.6-10.2,10.2-10.2c5.7,0,10.2,4.6,10.2,10.2c0,2.6-0.9,4.9-2.5,6.7l3.3,3.3c0.3,0.3,0.3,0.8,0,1.1s-0.8,0.3-1.1,0
	L18,19.3c-1.8,1.6-4.1,2.5-6.7,2.5C5.8,21.8,1.2,17.2,1.2,11.5z"/>
</svg>
