<?xml version="1.0" encoding="utf-8"?>
<!-- Generator: Adobe Illustrator 27.5.0, SVG Export Plug-In . SVG Version: 6.00 Build 0)  -->
<svg version="1.1" id="Layer_1" xmlns="http://www.w3.org/2000/svg" xmlns:xlink="http://www.w3.org/1999/xlink" x="0px" y="0px"
	 viewBox="0 0 1000 1000" style="enable-background:new 0 0 1000 1000;" xml:space="preserve">
<style type="text/css">
	.st0{fill-rule:evenodd;clip-rule:evenodd;fill:#F0F0F0;}
	.st1{fill:#F0F0F0;}
</style>
<g>
	<path class="st0" d="M440.1,510.9c-99.1,0-189.5,21.5-258.4,60.3S65.4,666,65.4,734.9v4.3c0,51.7,0,112,56,159.4
		c25.8,21.5,64.6,38.8,116.3,47.4c51.7,8.6,116.3,17.2,206.8,17.2c86.1,0,155.1-4.3,206.8-17.2c51.7-8.6,90.5-25.8,116.3-47.4
		c56-43.1,56-107.7,56-159.4v-4.3c0-68.9-51.7-129.2-116.3-163.7C629.6,536.7,539.2,510.9,440.1,510.9z M130,739.2
		c0-38.8,25.8-77.5,86.1-107.7c56-30.2,137.8-51.7,228.3-51.7s172.3,21.5,228.3,51.7c56,34.5,86.1,73.2,86.1,107.7
		c0,56,0,86.1-30.2,112c-17.2,12.9-43.1,25.8-90.5,34.5c-47.4,8.6-107.7,12.9-193.8,12.9s-146.4-4.3-193.8-12.9
		c-47.4-8.6-73.2-21.5-90.5-34.5C130,825.3,130,795.2,130,739.2z"/>
	<path class="st0" d="M442.3,37.1c-112,0-202.4,94.8-202.4,206.8s90.5,206.8,202.4,206.8S649,360.1,649,243.8S554.3,37.1,442.3,37.1
		z M304.4,243.8c0-77.5,64.6-137.8,137.8-137.8S580,170.6,580,243.8s-60.3,137.8-137.8,137.8S304.4,321.4,304.4,243.8z"/>
	<path class="st1" d="M961.8,151c23.9,49.9-13.9,75.2-43.8,105.4c12.1,12.1,23.8,23.5,35.3,35.3c20.6,21.4,21.5,52,2.3,75.4
		c-17,20.6-50.5,25.9-72.8,9.4c-13.2-9.8-24.1-22.8-36-34.4c-1.9-1.9-4-3.7-7.5-6.9c-11,11-21.3,21.8-32.2,32.1
		c-26.6,25-60.6,25.1-83.6,0.4c-17.1-18.2-20-47.6-4.8-67.6c12-15.6,26.4-29.5,40.8-45.5c-10.6-10.6-21.4-21.2-32-32
		c-23.7-24-24.7-58-2.8-80.5c22.1-22.7,57.1-21.6,81.6,2.5c10.5,10.3,20.8,20.8,32.3,32.3c8.9-8.9,17.4-16.7,25-25.1
		c22.6-25.2,48.8-33.5,80.5-18.7C950,139.2,955.9,145,961.8,151z"/>
</g>
</svg>
