<?xml version="1.0" encoding="utf-8"?>
<!-- Generator: Adobe Illustrator 27.5.0, SVG Export Plug-In . SVG Version: 6.00 Build 0)  -->
<svg version="1.1" id="Layer_1" xmlns="http://www.w3.org/2000/svg" xmlns:xlink="http://www.w3.org/1999/xlink" x="0px" y="0px"
	 viewBox="0 0 24 24" style="enable-background:new 0 0 24 24;" xml:space="preserve">
<style type="text/css">
	.st0{fill-rule:evenodd;clip-rule:evenodd;fill:#F28705;}
</style>
<path class="st0" d="M12,1.2C9.4,1.2,7.3,3.4,7.3,6s2.1,4.8,4.7,4.8c2.6,0,4.8-2.1,4.8-4.8S14.6,1.2,12,1.2z M8.8,6
	c0-1.8,1.5-3.2,3.2-3.2s3.2,1.5,3.2,3.2S13.8,9.2,12,9.2S8.8,7.8,8.8,6z"/>
<path class="st0" d="M12,12.2c-2.3,0-4.4,0.5-6,1.4c-1.6,0.9-2.7,2.2-2.7,3.8l0,0.1c0,1.2,0,2.6,1.3,3.7c0.6,0.5,1.5,0.9,2.7,1.1
	c1.2,0.2,2.7,0.4,4.8,0.4c2,0,3.6-0.1,4.8-0.4c1.2-0.2,2.1-0.6,2.7-1.1c1.3-1,1.3-2.5,1.3-3.7l0-0.1c0-1.6-1.2-3-2.7-3.8
	C16.4,12.8,14.3,12.2,12,12.2z M4.8,17.5c0-0.9,0.6-1.8,2-2.5c1.3-0.7,3.2-1.2,5.3-1.2c2.1,0,4,0.5,5.3,1.2c1.3,0.8,2,1.7,2,2.5
	c0,1.3,0,2-0.7,2.6c-0.4,0.3-1,0.6-2.1,0.8c-1.1,0.2-2.5,0.3-4.5,0.3s-3.4-0.1-4.5-0.3c-1.1-0.2-1.7-0.5-2.1-0.8
	C4.8,19.5,4.8,18.8,4.8,17.5z"/>
</svg>
